<svg xmlns="http://www.w3.org/2000/svg" width="18.4" height="17.252" viewBox="0 0 18.4 17.252">
  <g id="date-line" transform="translate(0)">
    <path id="Path_394" data-name="Path 394" d="M19.4,6H17.527V7.15h1.725V19.8H3.15V7.15H4.875V6H3.006A1.024,1.024,0,0,0,2,7.041v12.87a1.024,1.024,0,0,0,1.006,1.041H19.4a1.024,1.024,0,0,0,1-1.041V7.041A1.024,1.024,0,0,0,19.4,6Z" transform="translate(-2 -3.7)"/>
    <path id="Path_395" data-name="Path 395" d="M8,14H9.15v1.15H8Z" transform="translate(-4.549 -7.099)"/>
    <path id="Path_396" data-name="Path 396" d="M14,14h1.15v1.15H14Z" transform="translate(-7.099 -7.099)"/>
    <path id="Path_397" data-name="Path 397" d="M20,14h1.15v1.15H20Z" transform="translate(-9.649 -7.099)"/>
    <path id="Path_398" data-name="Path 398" d="M26,14h1.15v1.15H26Z" transform="translate(-12.198 -7.099)"/>
    <path id="Path_399" data-name="Path 399" d="M8,19H9.15v1.15H8Z" transform="translate(-4.549 -9.224)"/>
    <path id="Path_400" data-name="Path 400" d="M14,19h1.15v1.15H14Z" transform="translate(-7.099 -9.224)"/>
    <path id="Path_401" data-name="Path 401" d="M20,19h1.15v1.15H20Z" transform="translate(-9.649 -9.224)"/>
    <path id="Path_402" data-name="Path 402" d="M26,19h1.15v1.15H26Z" transform="translate(-12.198 -9.224)"/>
    <path id="Path_403" data-name="Path 403" d="M8,24H9.15v1.15H8Z" transform="translate(-4.549 -11.349)"/>
    <path id="Path_404" data-name="Path 404" d="M14,24h1.15v1.15H14Z" transform="translate(-7.099 -11.349)"/>
    <path id="Path_405" data-name="Path 405" d="M20,24h1.15v1.15H20Z" transform="translate(-9.649 -11.349)"/>
    <path id="Path_406" data-name="Path 406" d="M26,24h1.15v1.15H26Z" transform="translate(-12.198 -11.349)"/>
    <path id="Path_407" data-name="Path 407" d="M9.575,6.6a.575.575,0,0,0,.575-.575V2.575a.575.575,0,1,0-1.15,0v3.45A.575.575,0,0,0,9.575,6.6Z" transform="translate(-4.974 -2)"/>
    <path id="Path_408" data-name="Path 408" d="M25.575,6.6a.575.575,0,0,0,.575-.575V2.575a.575.575,0,0,0-1.15,0v3.45A.575.575,0,0,0,25.575,6.6Z" transform="translate(-11.773 -2)"/>
    <path id="Path_409" data-name="Path 409" d="M13,6h5.751V7.15H13Z" transform="translate(-6.674 -3.7)"/>
  </g>
</svg>
