<svg id="notification-solid" xmlns="http://www.w3.org/2000/svg" width="15.96" height="17.412" viewBox="0 0 15.96 17.412">
  <path id="Path_5671" data-name="Path 5671" d="M19.01,15.89l-.182-.161a7.7,7.7,0,0,1-1.344-1.569,6.764,6.764,0,0,1-.723-2.576V8.938A5.789,5.789,0,0,0,11.7,3.181V2.49a.715.715,0,1,0-1.43,0v.7a5.789,5.789,0,0,0-5,5.747v2.646a6.764,6.764,0,0,1-.723,2.576,7.712,7.712,0,0,1-1.323,1.569l-.182.161V17.4H19.01Z" transform="translate(-3.05 -1.775)" fill="#bababa"/>
  <path id="Path_5672" data-name="Path 5672" d="M15.32,32a1.419,1.419,0,0,0,2.812,0Z" transform="translate(-8.749 -15.813)" fill="#bababa"/>
</svg>
