<svg xmlns="http://www.w3.org/2000/svg" width="11.215" height="14.954" viewBox="0 0 11.215 14.954">
  <path id="Icon_awesome-clipboard-list" data-name="Icon awesome-clipboard-list" d="M9.813,1.869H7.477a1.869,1.869,0,1,0-3.738,0H1.4A1.4,1.4,0,0,0,0,3.271V13.552a1.4,1.4,0,0,0,1.4,1.4H9.813a1.4,1.4,0,0,0,1.4-1.4V3.271A1.4,1.4,0,0,0,9.813,1.869ZM2.8,12.384a.7.7,0,1,1,.7-.7A.7.7,0,0,1,2.8,12.384Zm0-2.8a.7.7,0,1,1,.7-.7A.7.7,0,0,1,2.8,9.58Zm0-2.8a.7.7,0,1,1,.7-.7A.7.7,0,0,1,2.8,6.776Zm2.8-5.608a.7.7,0,1,1-.7.7A.7.7,0,0,1,5.608,1.168ZM9.346,11.916a.234.234,0,0,1-.234.234H4.907a.234.234,0,0,1-.234-.234v-.467a.234.234,0,0,1,.234-.234H9.112a.234.234,0,0,1,.234.234Zm0-2.8a.234.234,0,0,1-.234.234H4.907a.234.234,0,0,1-.234-.234V8.645a.234.234,0,0,1,.234-.234H9.112a.234.234,0,0,1,.234.234Zm0-2.8a.234.234,0,0,1-.234.234H4.907a.234.234,0,0,1-.234-.234V5.841a.234.234,0,0,1,.234-.234H9.112a.234.234,0,0,1,.234.234Z" fill="#bababa"/>
</svg>
