<svg xmlns="http://www.w3.org/2000/svg" width="13.656" height="15.606" viewBox="0 0 13.656 15.606">
  <path id="Icon_awesome-building" data-name="Icon awesome-building" d="M13.29,14.631h-.61V.732A.732.732,0,0,0,11.949,0H1.707A.732.732,0,0,0,.975.732v13.9H.366A.366.366,0,0,0,0,15v.61H13.656V15A.366.366,0,0,0,13.29,14.631ZM3.9,2.317a.366.366,0,0,1,.366-.366H5.487a.366.366,0,0,1,.366.366V3.536a.366.366,0,0,1-.366.366H4.267A.366.366,0,0,1,3.9,3.536Zm0,2.926a.366.366,0,0,1,.366-.366H5.487a.366.366,0,0,1,.366.366V6.462a.366.366,0,0,1-.366.366H4.267A.366.366,0,0,1,3.9,6.462ZM5.487,9.754H4.267A.366.366,0,0,1,3.9,9.388V8.169A.366.366,0,0,1,4.267,7.8H5.487a.366.366,0,0,1,.366.366V9.388A.366.366,0,0,1,5.487,9.754ZM7.8,14.631H5.852v-2.56a.366.366,0,0,1,.366-.366H7.437a.366.366,0,0,1,.366.366ZM9.754,9.388a.366.366,0,0,1-.366.366H8.169A.366.366,0,0,1,7.8,9.388V8.169A.366.366,0,0,1,8.169,7.8H9.388a.366.366,0,0,1,.366.366Zm0-2.926a.366.366,0,0,1-.366.366H8.169A.366.366,0,0,1,7.8,6.462V5.243a.366.366,0,0,1,.366-.366H9.388a.366.366,0,0,1,.366.366Zm0-2.926a.366.366,0,0,1-.366.366H8.169A.366.366,0,0,1,7.8,3.536V2.317a.366.366,0,0,1,.366-.366H9.388a.366.366,0,0,1,.366.366Z" fill="#bababa"/>
</svg>
