<svg xmlns="http://www.w3.org/2000/svg" width="14.073" height="14.073" viewBox="0 0 14.073 14.073">
  <path id="store" d="M12.314,7.037a1.759,1.759,0,0,1-1.759-1.759A1.759,1.759,0,0,1,8.8,7.037,1.759,1.759,0,0,1,7.036,5.278,1.759,1.759,0,0,1,5.277,7.037,1.759,1.759,0,0,1,3.518,5.278,1.7,1.7,0,0,1,3,6.522a1.693,1.693,0,0,1-1.244.515A1.7,1.7,0,0,1,.515,6.522,1.694,1.694,0,0,1,0,5.278,3.2,3.2,0,0,1,.44,3.959L1.7.674A.969.969,0,0,1,2.061.193.878.878,0,0,1,2.584,0h8.961a.867.867,0,0,1,.529.192.98.98,0,0,1,.35.481l1.209,3.284q.027.069.131.3t.158.357a2.307,2.307,0,0,1,.1.323,1.408,1.408,0,0,1,.048.344,1.759,1.759,0,0,1-1.759,1.759ZM.88,12.314V8.8a.839.839,0,0,1,.261-.625.855.855,0,0,1,.618-.254.859.859,0,0,1,.618.254.838.838,0,0,1,.261.625v3.518H5.277V8.8a.868.868,0,0,1,.88-.88H7.916a.868.868,0,0,1,.88.88v3.518h2.639V8.8a.839.839,0,0,1,.261-.625.88.88,0,0,1,1.237,0,.838.838,0,0,1,.261.625v3.518a.857.857,0,0,1,.618.254.83.83,0,0,1,.261.618.892.892,0,0,1-.88.887H.88a.845.845,0,0,1-.618-.261A.853.853,0,0,1,0,13.187a.83.83,0,0,1,.261-.618A.857.857,0,0,1,.88,12.314Z" transform="translate(0 -0.001)" fill="#bababa"/>
</svg>
