<svg xmlns="http://www.w3.org/2000/svg" width="13.655" height="13.655" viewBox="0 0 13.655 13.655">
  <path id="Icon_material-shopping-cart" data-name="Icon material-shopping-cart" d="M5.6,13.924A1.366,1.366,0,1,0,6.962,15.29,1.364,1.364,0,0,0,5.6,13.924ZM1.5,3V4.366H2.866L5.323,9.548,4.4,11.22a1.32,1.32,0,0,0-.171.655A1.37,1.37,0,0,0,5.6,13.241H13.79V11.876H5.883a.169.169,0,0,1-.171-.171l.02-.082.614-1.113h5.087a1.359,1.359,0,0,0,1.195-.7l2.444-4.431a.667.667,0,0,0,.082-.328.685.685,0,0,0-.683-.683H4.374L3.733,3ZM12.424,13.924A1.366,1.366,0,1,0,13.79,15.29,1.364,1.364,0,0,0,12.424,13.924Z" transform="translate(-1.5 -3)" fill="#bababa"/>
</svg>
