<svg xmlns="http://www.w3.org/2000/svg" width="13.655" height="14.022" viewBox="0 0 13.655 14.022">
  <path id="settings-sharp" d="M9.079,6.4a2.439,2.439,0,1,0,2.439,2.439A2.439,2.439,0,0,0,9.079,6.4Zm5.265,2.439a5.046,5.046,0,0,1-.05.681l1.484,1.162a.353.353,0,0,1,.08.45l-1.4,2.424a.355.355,0,0,1-.431.15l-1.745-.7a5.382,5.382,0,0,1-1.184.691l-.261,1.853a.364.364,0,0,1-.351.3H7.675a.366.366,0,0,1-.351-.29l-.261-1.853a5.161,5.161,0,0,1-1.184-.691l-1.745.7a.355.355,0,0,1-.431-.15L2.3,11.143a.353.353,0,0,1,.08-.45L3.864,9.53a5.321,5.321,0,0,1-.05-.691,5.046,5.046,0,0,1,.05-.681L2.379,7a.353.353,0,0,1-.08-.45L3.7,4.122a.355.355,0,0,1,.431-.15l1.745.7a5.382,5.382,0,0,1,1.184-.691l.261-1.853a.364.364,0,0,1,.351-.3h2.808a.366.366,0,0,1,.351.29l.261,1.853a5.161,5.161,0,0,1,1.185.691l1.744-.7a.355.355,0,0,1,.431.15l1.4,2.424a.353.353,0,0,1-.08.45L14.294,8.148a5.322,5.322,0,0,1,.05.691Z" transform="translate(-2.251 -1.828)" fill="#bababa"/>
</svg>
