<svg xmlns="http://www.w3.org/2000/svg" width="13.868" height="13.882" viewBox="0 0 13.868 13.882">
  <path id="profile" d="M13.868,12.974a.378.378,0,0,1-.183.3,1.545,1.545,0,0,1-.562.223q-.379.088-.779.162a8.858,8.858,0,0,1-1.023.115q-.623.04-1.084.061t-1.185.034q-.725.013-1.1.013H5.911l-1.1-.013-1.185-.034-1.084-.061-1.023-.115L.744,13.5l-.561-.223L0,12.974a2.633,2.633,0,0,1,1.49-2.106A9.25,9.25,0,0,1,5.2,9.656V9.209a3.579,3.579,0,0,1-1.219-.88,4.275,4.275,0,0,1-.812-1.334,7.821,7.821,0,0,1-.433-1.639A12.323,12.323,0,0,1,2.6,3.467a3.406,3.406,0,0,1,.339-1.544A2.852,2.852,0,0,1,3.873.833,4.414,4.414,0,0,1,5.241.21,6.424,6.424,0,0,1,6.934,0,6.462,6.462,0,0,1,8.627.21,4.4,4.4,0,0,1,9.994.833a2.856,2.856,0,0,1,.934,1.09,3.41,3.41,0,0,1,.339,1.544q0,4.74-2.6,5.769v.42a9.246,9.246,0,0,1,3.711,1.212A2.636,2.636,0,0,1,13.868,12.974Z" fill="#bababa"/>
</svg>
