<svg xmlns="http://www.w3.org/2000/svg" width="16" height="16" viewBox="0 0 16 16">
    <g id="Group_3857" data-name="Group 3857" transform="translate(7068 -19663)">
        <circle id="Ellipse_1530" data-name="Ellipse 1530" cx="8" cy="8" r="8"
            transform="translate(-7068 19663)" fill="#19baf5" />
        <g id="nurse" transform="translate(-7170.445 19402.48)">
            <path id="Exclusion_1" data-name="Exclusion 1"
                d="M0,1.854c.015-.048.027-.1.044-.145a.874.874,0,0,1,.48-.538A17.224,17.224,0,0,1,2.892.261,6.178,6.178,0,0,1,5.169.024,7.618,7.618,0,0,1,7.2.523c.516.2,1.026.412,1.53.633A.885.885,0,0,1,9.22,2.337q-.6,1.589-1.2,3.176A.108.108,0,0,1,7.9,5.6q-3.251,0-6.5,0a.1.1,0,0,1-.112-.073q-.6-1.6-1.212-3.2C.041,2.254.022,2.181,0,2.111,0,2.024,0,1.939,0,1.854Zm5.462.453v-.79a.275.275,0,0,0-.3-.3H4.131a.275.275,0,0,0-.3.3v.788c-.276,0-.541,0-.8,0a.265.265,0,0,0-.284.257c0,.371,0,.744,0,1.115a.267.267,0,0,0,.264.259c.048,0,.1,0,.145,0h.679v.107c0,.235,0,.473,0,.708a.266.266,0,0,0,.267.274q.549,0,1.1,0a.265.265,0,0,0,.267-.274c0-.187,0-.376,0-.563V3.939h.778a.277.277,0,0,0,.31-.313V2.62a.281.281,0,0,0-.315-.313Z"
                transform="translate(105.8 264.725)" fill="#fff" />
            <path id="Path_858" data-name="Path 858"
                d="M169.334,518.2c0,.361.007.715,0,1.067a.4.4,0,0,1-.388.376c-.024,0-.049,0-.073,0h-5.608a.425.425,0,0,1-.456-.332.278.278,0,0,1-.007-.044V518.2C164.98,518.2,167.152,518.2,169.334,518.2Z"
                transform="translate(-55.618 -247.33)" fill="#fff" />
            <path id="Path_860" data-name="Path 860"
                d="M241.6,339.427v-.546h.778a.277.277,0,0,0,.31-.305V337.8h.546v.8a.269.269,0,0,0,.286.284c.262,0,.526,0,.8,0v.546h-.749c-.23,0-.335.1-.335.33v.754h-.545v-.785a.275.275,0,0,0-.3-.3C242.126,339.424,241.867,339.427,241.6,339.427Z"
                transform="translate(-132.508 -71.304)" fill="#fff" />
        </g>
    </g>
</svg>