<svg xmlns="http://www.w3.org/2000/svg" width="14.619" height="15.242" viewBox="0 0 14.619 15.242">
    <g id="nurse" transform="translate(0 0)">
        <path id="Path_571" data-name="Path 571"
            d="M88.934,3.008c-.021-.084-.038-.147-.053-.2l.448-1.191a.265.265,0,0,0-.1-.315,7.332,7.332,0,0,0-8.345,0,.265.265,0,0,0-.1.315l.448,1.191c-.014.051-.031.114-.053.2-.951,3.561-1.123,5.36-.558,5.83a6.27,6.27,0,0,0,3.007,1.29v.8a.239.239,0,1,0,.477,0v-.777a1.824,1.824,0,0,0,1.908,0v.777a.239.239,0,1,0,.477,0v-.8a6.29,6.29,0,0,0,3.009-1.29c.563-.47.391-2.269-.56-5.83ZM87.677,7.113a3.242,3.242,0,0,1-2.623,2.794,3.242,3.242,0,0,1-2.623-2.794V5.756A12.023,12.023,0,0,0,86.2,4.392a5.671,5.671,0,0,0,1.481,1.316ZM88.035,3.7a7.181,7.181,0,0,0-5.961,0L81.3,1.636a6.816,6.816,0,0,1,7.511,0Zm0,0"
            transform="translate(-77.744)" fill="#4da0a5" />
        <path id="Path_572" data-name="Path 572"
            d="M209.4,255.882a1.023,1.023,0,0,1-1.206,0,.254.254,0,1,0-.318.4,1.517,1.517,0,0,0,1.842,0,.254.254,0,1,0-.318-.4Zm0,0"
            transform="translate(-201.489 -247.697)" fill="#4da0a5" />
        <path id="Path_573" data-name="Path 573"
            d="M273.016,184.508a.508.508,0,1,1-.508-.508A.508.508,0,0,1,273.016,184.508Zm0,0"
            transform="translate(-263.741 -178.157)" fill="#4da0a5" />
        <path id="Path_574" data-name="Path 574"
            d="M177.016,184.508a.508.508,0,1,1-.508-.508A.508.508,0,0,1,177.016,184.508Zm0,0"
            transform="translate(-170.656 -178.157)" fill="#4da0a5" />
        <path id="Path_575" data-name="Path 575"
            d="M216.254,33.016h.254v.254a.254.254,0,1,0,.508,0v-.254h.254a.254.254,0,1,0,0-.508h-.254v-.254a.254.254,0,0,0-.508,0v.254h-.254a.254.254,0,0,0,0,.508Zm0,0"
            transform="translate(-209.452 -30.984)" fill="#4da0a5" />
        <path id="Path_576" data-name="Path 576"
            d="M7.367,349.328l-2.36-.709a.256.256,0,0,1-.18-.244v-.859l-.876-.439a.252.252,0,0,1-.112-.34l.274-.549.279-.555C1.557,346.026,0,347.439,0,349.645a.254.254,0,0,0,.254.254H7.367Zm0,0"
            transform="translate(0 -334.658)" fill="#4da0a5" />
        <path id="Path_577" data-name="Path 577"
            d="M250.978,345.727l.276.555.274.546a.252.252,0,0,1-.112.34l-.876.439v.859a.256.256,0,0,1-.18.244l-2.36.709v.572h7.113a.254.254,0,0,0,.254-.254c0-2.2-1.547-3.611-4.389-4.01Zm0,0"
            transform="translate(-240.747 -334.749)" fill="#4da0a5" />
        <path id="Path_578" data-name="Path 578"
            d="M141.681,347.213v-1.032l-2.106-2.108a.262.262,0,0,0-.18-.073h-.1l-.262.518-.318.638.79.4a.251.251,0,0,1,.14.226v.828Zm0,0"
            transform="translate(-134.537 -333.077)" fill="#4da0a5" />
        <path id="Path_579" data-name="Path 579"
            d="M250.644,344.523l-.259-.523h-.1a.262.262,0,0,0-.18.074L248,346.181v1.032l2.032-.607v-.828a.251.251,0,0,1,.14-.226l.79-.4Zm0,0"
            transform="translate(-240.524 -333.076)" fill="#4da0a5" />
    </g>
</svg>