<svg id="_003-wheelchair" data-name="003-wheelchair" xmlns="http://www.w3.org/2000/svg" width="14.398"
    height="19.197" viewBox="0 0 14.398 19.197">
    <path id="Path_543" data-name="Path 543" d="M15,4a2,2,0,1,0-2-2A2,2,0,0,0,15,4Z"
        transform="translate(-11.4)" fill="#4da0a5" />
    <path id="Path_544" data-name="Path 544"
        d="M11.3,21.275a5.805,5.805,0,0,0,5.8-5.8,2.287,2.287,0,0,0-.028-.4l-.766.136-.821,0a.834.834,0,0,0,.013.148.8.8,0,0,1,0,.124,4.2,4.2,0,1,1-6.213-3.691l-.773-1.4A5.8,5.8,0,0,0,11.3,21.275Z"
        transform="translate(-5.5 -2.078)" fill="#4da0a5" />
    <path id="Path_545" data-name="Path 545"
        d="M12.844,19h.83a.6.6,0,0,0,.566-.8L12.405,13a3,3,0,0,0-2.828-2H7.558a.993.993,0,0,1-.927-.626L5.772,8.226A1.956,1.956,0,0,0,2.1,9.575l.859,2.58A3,3,0,0,0,5.8,14.205l3.139.01a1,1,0,0,1,.943.68L10.76,17.5A2.2,2.2,0,0,0,12.844,19Z"
        transform="translate(0.124 -1.401)" fill="#4da0a5" />
</svg>