<svg xmlns="http://www.w3.org/2000/svg" width="16" height="16" viewBox="0 0 16 16">
  <g id="Group_3505" data-name="Group 3505" transform="translate(-380 -233.539)">
    <circle id="_2" data-name="2" cx="8" cy="8" r="8" transform="translate(380 233.539)" fill="#4da0a5"/>
    <path id="Path_702" data-name="Path 702" d="M11.678,9.65c-.005-.056-.009-.146-.012-.24.849-.087,1.445-.291,1.445-.528,0,0,0-.01,0-.014-.635-.572.55-4.638-1.656-4.555a1.123,1.123,0,0,0-.729-.221c-2.989.226-1.667,4.065-2.348,4.79h0c0,.232.578.432,1.4.521,0,.057-.007.127-.018.244-.342.921-2.653.662-2.76,2.438h7.427C14.321,10.312,12.02,10.571,11.678,9.65Z" transform="translate(377.126 233.236)" fill="#fff"/>
  </g>
</svg>