<svg xmlns="http://www.w3.org/2000/svg" width="16" height="16" viewBox="0 0 16 16">
  <g id="Group_3544" data-name="Group 3544" transform="translate(125 -1667)">
    <circle id="_2" data-name="2" cx="8" cy="8" r="8" transform="translate(-125 1667)" fill="#e1c991"/>
    <path id="Path_701" data-name="Path 701" d="M11.779,10.009a8.254,8.254,0,0,1-.018-.841,1.645,1.645,0,0,0,.451-.976c.115-.009.3-.121.348-.563a.412.412,0,0,0-.154-.412c.186-.561.574-2.3-.716-2.475a1.015,1.015,0,0,0-.915-.351c-1.768.033-1.981,1.335-1.594,2.827a.413.413,0,0,0-.154.412c.053.441.234.553.348.563a1.642,1.642,0,0,0,.462.976,8.256,8.256,0,0,1-.018.841c-.35.94-2.71.676-2.819,2.49h7.588C14.479,10.686,12.129,10.95,11.779,10.009Z" transform="translate(-128 1666.609)" fill="#fff"/>
  </g>
</svg>